<svg width="80" height="80" viewBox="0 0 80 80" fill="none" xmlns="http://www.w3.org/2000/svg">
<path d="M39.8605 10.1656C40.7295 10.1656 41.4341 9.46109 41.4341 8.59203V1.57359C41.4341 0.704531 40.7295 0 39.8605 0C38.9914 0 38.2869 0.704531 38.2869 1.57359V8.59203C38.287 9.46109 38.9916 10.1656 39.8605 10.1656Z" fill="#2489DA"/>
<path d="M78.325 54.0602L75.5452 51.2881C74.5562 50.3005 73.2383 49.7564 71.8339 49.7564C70.9359 49.7564 70.0739 49.9799 69.31 50.3985L64.0716 45.1663L64.3267 44.9114C66.4519 42.7821 66.4511 39.3219 64.3266 37.1997C63.5673 36.4391 62.62 35.9319 61.5873 35.7185C61.7295 35.2277 61.8044 34.7136 61.8044 34.1875C61.8044 32.7258 61.2366 31.3552 60.2087 30.3316C59.4494 29.571 58.5022 29.0638 57.4695 28.8503C57.6117 28.3596 57.6866 27.8456 57.6866 27.3194C57.6866 25.8575 57.1188 24.4871 56.0892 23.4619C55.3117 22.6853 54.3559 22.1938 53.3523 21.9846C53.8892 20.1335 53.4305 18.0508 51.9742 16.5921C50.762 15.385 49.1172 14.8663 47.532 15.0344L37.1516 13.0696C35.5684 12.7692 33.5914 12.5706 32.3434 13.7089C32.2647 13.7808 32.1844 13.8635 32.1053 13.9555C30.1703 13.2502 27.9134 13.6702 26.3639 15.218C25.3359 16.2447 24.7697 17.6147 24.7697 19.0756C24.7697 19.6019 24.8442 20.1158 24.9863 20.6067C23.9547 20.82 23.0086 21.3266 22.2519 22.0847C21.2219 23.1105 20.6539 24.4789 20.6528 25.9381C20.6523 26.4656 20.7272 26.9813 20.87 27.4735C19.838 27.6863 18.8913 28.1919 18.1322 28.95C17.1022 29.9789 16.535 31.3497 16.535 32.8099C16.535 33.9283 16.8689 34.9938 17.4877 35.8938C16.7064 36.1586 15.9908 36.5994 15.3916 37.198C13.265 39.3219 13.2642 42.7822 15.393 44.9147L15.6472 45.1678L10.4081 50.3974C8.4611 49.4806 6.06219 49.8241 4.45548 51.4288L1.67391 54.2025C0.684538 55.1906 0.13985 56.5088 0.139694 57.9139C0.139694 59.3192 0.684538 60.6375 1.67391 61.6258L5.14532 65.093C5.76016 65.7072 6.75657 65.7066 7.37063 65.0917C7.98485 64.4769 7.98422 63.4805 7.36938 62.8664L3.89798 59.3992C3.50391 59.0056 3.28688 58.4781 3.28688 57.9141C3.28688 57.3502 3.50391 56.8228 3.89704 56.4302L6.67876 53.6563C7.37376 52.9621 8.43751 52.8586 9.24532 53.3416C9.30219 53.4271 9.36797 53.5083 9.44329 53.5838C9.57813 53.7189 9.73204 53.8225 9.89547 53.8983L25.8475 69.8269C25.9233 69.9921 26.0273 70.1475 26.1631 70.2835C26.2953 70.4158 26.4461 70.5181 26.6061 70.5935C26.9434 70.9749 27.1298 71.4621 27.1298 71.9817C27.1298 72.5458 26.9128 73.0731 26.5188 73.4667L23.7398 76.2424C22.9188 77.0599 21.5831 77.0597 20.7645 76.2449L17.2931 72.7731C16.6786 72.1586 15.6823 72.1586 15.0678 72.7731C14.4533 73.3877 14.4533 74.3839 15.0678 74.9985L18.5417 78.4727C19.5642 79.491 20.907 79.9999 22.2505 79.9999C23.5942 79.9999 24.9386 79.4902 25.9623 78.471L28.743 75.6936C29.7323 74.7053 30.2772 73.3872 30.2772 71.9817C30.2772 70.9788 29.9983 70.021 29.4797 69.195L35.3759 63.306C35.3822 63.2996 35.3884 63.2931 35.3948 63.2867C36.07 62.5888 37.9502 62.7194 39.7684 62.8456C41.0603 62.9355 42.5006 63.0353 43.9078 62.8731L50.3647 69.3224C49.9464 70.085 49.7231 70.946 49.7231 71.8425C49.7231 73.2464 50.268 74.5638 51.2573 75.5521L54.0381 78.3294C55.0269 79.3171 56.3448 79.8611 57.7492 79.8611C59.1534 79.8611 60.4714 79.3172 61.4603 78.3294L78.3261 61.4841C79.3155 60.496 79.8603 59.1778 79.8603 57.7725C79.8602 56.3674 79.3153 55.0492 78.325 54.0602V54.0602ZM36.5656 16.1617L43.3917 17.4538L39.3059 21.538C38.6739 21.2342 37.8077 20.6677 36.8573 19.7586C35.5566 18.5142 34.6261 17.0775 34.5414 16.1814C34.5413 16.181 34.5413 16.1805 34.5413 16.18C34.5413 16.1799 34.5411 16.1797 34.5411 16.1796C34.535 16.1152 34.5334 16.0638 34.5342 16.0246C34.74 15.9746 35.2866 15.9191 36.5656 16.1617ZM28.5878 17.4447C29.385 16.6483 30.6234 16.5564 31.5242 17.1664C32.0347 19.3067 33.8605 21.2466 34.6819 22.0325C35.2906 22.615 37.2439 24.3614 39.2155 24.8414C39.4822 25.2238 39.6273 25.6796 39.6273 26.1605C39.6273 26.78 39.3891 27.3592 38.9548 27.793C38.5219 28.2267 37.9417 28.4655 37.3211 28.4655C36.7003 28.4655 36.1202 28.2267 35.6852 27.791L35.685 27.7908L35.6842 27.79L28.5877 20.7063C28.155 20.2742 27.9167 19.695 27.9167 19.0756C27.9169 18.4561 28.1552 17.8769 28.5878 17.4447V17.4447ZM24.4759 24.3114C24.9089 23.8778 25.4884 23.6389 26.1081 23.6389C26.7286 23.6389 27.31 23.8783 27.7458 24.3136L33.4602 30.0166C34.36 30.9178 34.36 32.3844 33.4633 33.2825C33.028 33.7161 32.4458 33.9549 31.8241 33.9549C31.2023 33.9549 30.6202 33.7161 30.1867 33.2844L30.1866 33.2842L25.8514 28.95C25.8447 28.9433 25.8373 28.9371 25.8305 28.9302L24.4742 27.5746C24.0391 27.1399 23.7995 26.5596 23.8 25.9405C23.8006 25.3235 24.0394 24.7461 24.4759 24.3114V24.3114ZM20.3563 31.1767C20.7895 30.7441 21.3703 30.5058 21.9919 30.5058C22.6083 30.5058 23.1841 30.7406 23.6155 31.1658L27.9639 35.5122C28.3975 35.9441 28.6364 36.5227 28.6364 37.1414C28.6364 37.76 28.3975 38.3386 27.9622 38.7722C27.5291 39.2047 26.9489 39.443 26.3284 39.443C25.707 39.443 25.125 39.2041 24.6913 38.7722L23.1148 37.1977C23.1145 37.1972 23.1141 37.1969 23.1138 37.1966L20.3564 34.4425C19.9217 34.0083 19.6823 33.4283 19.6823 32.8096C19.6823 32.191 19.9217 31.6108 20.3563 31.1767V31.1767ZM17.6156 39.4246C18.0508 38.9899 18.6323 38.7505 19.2531 38.7505C19.8738 38.7505 20.4552 38.9897 20.8902 39.4241L22.4688 41.0008C22.9025 41.4327 23.1413 42.0113 23.1413 42.63C23.1413 43.2488 22.9023 43.8272 22.4655 44.2625C22.0325 44.6961 21.4523 44.935 20.8317 44.935C20.2109 44.935 19.6308 44.6963 19.1947 44.2594L18.997 44.0625C18.9944 44.0599 18.9923 44.0571 18.9898 44.0546C18.9869 44.0517 18.9838 44.0492 18.9808 44.0464L17.6172 42.6881C16.7173 41.7864 16.7166 40.3225 17.6156 39.4246ZM49.6834 57.3086C49.0692 56.6936 48.0728 56.6931 47.4581 57.3072L46.0581 58.7055C44.7278 60.0358 42.3173 59.8683 39.9863 59.7066C37.4548 59.5306 34.8372 59.3491 33.1433 61.0881L27.3472 66.8772L12.853 52.4042L17.9823 47.2841C18.8302 47.8038 19.8084 48.0824 20.832 48.0824C22.2944 48.0824 23.6656 47.5155 24.6898 46.4894C25.7209 45.4625 26.2889 44.0921 26.2889 42.6302C26.2889 42.6166 26.288 42.6031 26.288 42.5896C26.3016 42.5897 26.3152 42.5905 26.3288 42.5905C27.7891 42.5905 29.1592 42.0253 30.1848 41.001C31.2159 39.9741 31.7839 38.6035 31.7839 37.1417C31.7839 37.1281 31.783 37.1147 31.783 37.1011C31.7967 37.1011 31.8105 37.1021 31.8244 37.1021C33.2842 37.1021 34.6552 36.5375 35.6877 35.5092C36.7595 34.4356 37.2897 33.0222 37.2795 31.6117C37.2936 31.6119 37.3077 31.6127 37.3217 31.6127C38.7841 31.6125 40.1552 31.0458 41.1809 30.0181C42.2089 28.9914 42.7752 27.6214 42.7752 26.1605C42.7752 25.1388 42.4973 24.1621 41.9794 23.316L46.4752 18.8221C46.8102 18.4885 47.2233 18.2791 47.6563 18.1927C47.7031 18.1877 47.7494 18.1802 47.7952 18.1711C48.4898 18.0753 49.2194 18.2897 49.7506 18.8188C50.6505 19.7202 50.6505 21.1867 49.7539 22.0849L48.3847 23.4485C48.3802 23.453 48.3753 23.4571 48.3708 23.4616L46.7938 25.036C46.1788 25.65 46.1781 26.6464 46.7923 27.2613C47.4067 27.8763 48.403 27.8767 49.0177 27.2627L50.3923 25.8899C50.3927 25.8896 50.393 25.8892 50.3933 25.8889L50.6011 25.6819C51.5034 24.7878 52.9653 24.7897 53.8667 25.6899C54.3005 26.1217 54.5394 26.7003 54.5394 27.3191C54.5394 27.9377 54.3005 28.5163 53.8633 28.9516L52.4862 30.3314C52.4861 30.3316 52.4859 30.3317 52.4858 30.3321L50.9089 31.9025C50.2931 32.5158 50.2911 33.5122 50.9044 34.1278C51.5177 34.7436 52.5139 34.7455 53.1297 34.1324L54.7137 32.5547C55.1467 32.121 55.7269 31.8822 56.3475 31.8822C56.9683 31.8822 57.5486 32.121 57.9847 32.5578C58.4184 32.9899 58.6572 33.5685 58.6572 34.1872C58.6572 34.8058 58.4184 35.3844 57.9822 35.8188L55.2369 38.5652C54.6225 39.1799 54.6227 40.1761 55.2372 40.7905C55.5445 41.0977 55.947 41.2511 56.3497 41.2511C56.7525 41.2511 57.1553 41.0974 57.4625 40.79L58.808 39.4441C58.8156 39.4367 58.8239 39.4303 58.8316 39.4227C59.2645 38.9889 59.8447 38.7502 60.4653 38.7502C61.0861 38.7502 61.6663 38.9889 62.1008 39.4242C62.9997 40.3222 62.9989 41.7863 62.1008 42.686L60.7328 44.0524C60.7323 44.0528 60.7317 44.0533 60.7312 44.0538C60.7308 44.0542 60.7303 44.0549 60.7298 44.0553L58.5586 46.2239C57.9437 46.8381 57.9431 47.8346 58.5572 48.4494C58.8645 48.7571 59.2677 48.911 59.6706 48.911C60.073 48.911 60.4755 48.7575 60.7827 48.4508L61.8447 47.39L66.9348 52.4742L52.4419 66.9496L47.2491 61.763C47.6111 61.5302 47.9575 61.2564 48.2827 60.9313L49.6819 59.5338C50.297 58.9199 50.2977 57.9235 49.6834 57.3086V57.3086ZM76.1019 59.2574L59.2361 76.1027C58.8416 76.4967 58.3134 76.7138 57.7491 76.7138C57.1847 76.7138 56.6566 76.4967 56.2619 76.1025L53.4811 73.3252C53.087 72.9317 52.87 72.4052 52.87 71.8425C52.87 71.28 53.087 70.7535 53.4811 70.3599L70.3469 53.5146C70.7416 53.1203 71.2695 52.9033 71.8341 52.9033C72.3984 52.9033 72.9266 53.1203 73.3222 53.5155L76.102 56.2875C76.4961 56.6811 76.7131 57.2083 76.7131 57.7724C76.713 58.3366 76.4959 58.8639 76.1019 59.2574V59.2574Z" fill="#2489DA"/>
<path d="M18.9653 8.83907C19.2725 9.14563 19.6747 9.29876 20.0769 9.29876C20.48 9.29876 20.8833 9.1447 21.1906 8.83673C21.8045 8.22157 21.8036 7.22532 21.1884 6.61142L15.4544 0.888758C14.8394 0.274852 13.843 0.275633 13.2291 0.890946C12.6152 1.5061 12.6161 2.50235 13.2312 3.11626L18.9653 8.83907Z" fill="#2489DA"/>
<path d="M59.6441 9.29876C60.0464 9.29876 60.4489 9.14532 60.7561 8.83861L66.4858 3.11579C67.1006 2.50173 67.1013 1.50532 66.487 0.890479C65.873 0.275635 64.8767 0.27501 64.2617 0.889229L58.532 6.61204C57.9172 7.2261 57.9166 8.22251 58.5308 8.83735C58.8381 9.14501 59.2411 9.29876 59.6441 9.29876Z" fill="#2489DA"/>
<path d="M9.81547 67.6881C9.20625 68.3078 9.21469 69.3042 9.83453 69.9135L9.83906 69.9178C10.1448 70.2185 10.5419 70.3681 10.9388 70.3681C11.3461 70.3681 11.7534 70.2105 12.062 69.8966C12.6713 69.2769 12.6605 68.2783 12.0408 67.6691C11.4213 67.0599 10.425 67.0685 9.81547 67.6881V67.6881Z" fill="#2489DA"/>
<path d="M53.5322 55.0417C53.7715 55.0417 54.0144 54.9872 54.2423 54.8724C55.0183 54.481 55.33 53.5347 54.9387 52.7588C54.5473 51.9828 53.6009 51.671 52.8251 52.0624L52.8164 52.0667C52.0405 52.4581 51.7331 53.4022 52.1244 54.1782C52.4006 54.7263 52.9562 55.0417 53.5322 55.0417V55.0417Z" fill="#2489DA"/>
</svg>
