<svg width="80" height="78" viewBox="0 0 80 78" fill="none" xmlns="http://www.w3.org/2000/svg">
<path d="M79.8458 42.6954C79.1275 35.4706 75.8998 28.6594 70.7569 23.5163C66.3618 19.1214 60.9824 16.2971 55.322 15.0413V11.0713C57.6339 10.4961 59.3523 8.40342 59.3523 5.91604C59.3523 2.98662 56.9692 0.603455 54.0398 0.603455H42.7896C39.8602 0.603455 37.477 2.98662 37.477 5.91604C37.477 8.40326 39.1955 10.496 41.5072 11.0713V15.0524C35.8642 16.3135 30.5025 19.1339 26.1199 23.5165C25.1609 24.4755 24.2765 25.4817 23.4669 26.5273C23.4277 26.5243 23.3885 26.5214 23.3485 26.5214H12.2138C11.351 26.5214 10.6513 27.2209 10.6513 28.0839C10.6513 28.9469 11.351 29.6464 12.2138 29.6464H21.3408C20.1952 31.5644 19.2714 33.5787 18.5683 35.6521H1.56252C0.699698 35.6521 0 36.3517 0 37.2147C0 38.0776 0.699698 38.7772 1.56252 38.7772H17.6853C17.235 40.7539 16.9765 42.7657 16.9098 44.783H10.0002C9.13733 44.783 8.43763 45.4826 8.43763 46.3456C8.43763 47.2086 9.13733 47.9081 10.0002 47.9081H16.9596C17.0915 49.9306 17.4167 51.9425 17.9353 53.914H7.81262C6.9498 53.914 6.2501 54.6135 6.2501 55.4765C6.2501 56.3395 6.9498 57.039 7.81262 57.039H18.9325C20.4653 61.0939 22.8608 64.8945 26.1199 68.1536C31.2678 73.3015 38.0861 76.5299 45.3184 77.2445C46.3506 77.3464 47.3836 77.3968 48.4151 77.3968C54.5124 77.3968 60.5322 75.6323 65.6401 72.306C66.3632 71.835 66.5678 70.867 66.0968 70.1439C65.6259 69.4208 64.6579 69.2162 63.9347 69.6872C52.7538 76.9681 37.7797 75.3938 28.3297 65.9438C17.2417 54.8559 17.2417 36.8145 28.3297 25.7263C39.4175 14.6385 57.4589 14.6385 68.547 25.7263C77.9845 35.164 79.5673 50.1253 72.3105 61.3008C71.8405 62.0246 72.0463 62.9924 72.7699 63.4622C73.494 63.9323 74.4615 63.7265 74.9313 63.0027C78.8086 57.0315 80.5539 49.8197 79.8458 42.6954ZM40.602 5.91619C40.602 4.70992 41.5833 3.72866 42.7896 3.72866H54.0398C55.246 3.72866 56.2273 4.70992 56.2273 5.91619C56.2273 7.12246 55.246 8.10373 54.0398 8.10373H53.7594H43.0697H42.7896C41.5833 8.10373 40.602 7.12231 40.602 5.91619ZM44.6323 14.5152V11.2288H52.1969V14.5096C49.685 14.2109 47.1437 14.2127 44.6323 14.5152Z" fill="#2489DA"/>
<path d="M69.6526 65.4854C69.2401 65.4854 68.8386 65.6526 68.5481 65.9432C68.2559 66.2338 68.0901 66.637 68.0901 67.0479C68.0901 67.4589 68.2559 67.862 68.5481 68.1526C68.8386 68.4448 69.2403 68.6104 69.6526 68.6104C70.0636 68.6104 70.4651 68.4448 70.7573 68.1526C71.0479 67.862 71.2151 67.4589 71.2151 67.0479C71.2151 66.637 71.0481 66.2338 70.7573 65.9432C70.4651 65.6526 70.0634 65.4854 69.6526 65.4854Z" fill="#2489DA"/>
<path d="M48.4384 21.5955C35.0729 21.5955 24.1991 32.4691 24.1991 45.8348C24.1991 59.2005 35.0729 70.0741 48.4384 70.0741C61.8039 70.0741 72.6777 59.2005 72.6777 45.8348C72.6777 32.4691 61.8039 21.5955 48.4384 21.5955ZM48.4384 66.949C36.7959 66.949 27.3242 57.4772 27.3242 45.8348C27.3242 34.1924 36.7959 24.7206 48.4384 24.7206C60.0809 24.7206 69.5526 34.1924 69.5526 45.8348C69.5526 57.4772 60.0809 66.949 48.4384 66.949Z" fill="#2489DA"/>
<path d="M58.3223 33.7411L50.5831 41.4802C49.9359 41.1602 49.208 40.9794 48.4384 40.9794C47.6687 40.9794 46.9409 41.1602 46.2937 41.4802L42.83 38.0165C42.2197 37.4063 41.2306 37.4063 40.6202 38.0165C40.01 38.6267 40.01 39.6161 40.6202 40.2262L44.0838 43.6899C43.7636 44.3371 43.583 45.0651 43.583 45.8346C43.583 48.5118 45.761 50.69 48.4384 50.69C51.1158 50.69 53.2938 48.5118 53.2938 45.8346C53.2938 45.0651 53.113 44.3371 52.793 43.6899L60.305 36.1779L60.532 35.9509C61.1422 35.3407 61.1422 34.3513 60.532 33.7411C59.9219 33.131 58.9328 33.131 58.3223 33.7411ZM48.4384 47.5651C47.4843 47.5651 46.7081 46.7888 46.7081 45.8348C46.7081 44.8807 47.4843 44.1044 48.4384 44.1044C49.3925 44.1044 50.1687 44.8807 50.1687 45.8348C50.1687 46.7888 49.3925 47.5651 48.4384 47.5651Z" fill="#2489DA"/>
<path d="M65.1447 44.2913H63.6971C62.8343 44.2913 62.1346 44.9909 62.1346 45.8538C62.1346 46.7168 62.8343 47.4163 63.6971 47.4163H65.1447C66.0075 47.4163 66.7072 46.7168 66.7072 45.8538C66.7072 44.9909 66.0075 44.2913 65.1447 44.2913Z" fill="#2489DA"/>
<path d="M33.1795 44.2532H31.732C30.8692 44.2532 30.1695 44.9527 30.1695 45.8157C30.1695 46.6786 30.8692 47.3782 31.732 47.3782H33.1795C34.0424 47.3782 34.742 46.6786 34.742 45.8157C34.742 44.9527 34.0424 44.2532 33.1795 44.2532Z" fill="#2489DA"/>
<path d="M48.4575 32.1384C49.3203 32.1384 50.02 31.4389 50.02 30.5759V29.1284C50.02 28.2654 49.3203 27.5659 48.4575 27.5659C47.5946 27.5659 46.895 28.2654 46.895 29.1284V30.5759C46.895 31.4389 47.5946 32.1384 48.4575 32.1384Z" fill="#2489DA"/>
<path d="M48.4193 59.5311C47.5565 59.5311 46.8568 60.2306 46.8568 61.0936V62.5411C46.8568 63.404 47.5565 64.1036 48.4193 64.1036C49.2821 64.1036 49.9818 63.404 49.9818 62.5411V61.0936C49.9818 60.2306 49.2821 59.5311 48.4193 59.5311Z" fill="#2489DA"/>
<path d="M1.5625 53.9133C1.15156 53.9133 0.748438 54.0805 0.457813 54.3711C0.167188 54.6618 0 55.0649 0 55.4758C0 55.8883 0.167031 56.2899 0.457813 56.5805C0.748594 56.8711 1.15156 57.0383 1.5625 57.0383C1.97344 57.0383 2.37656 56.8711 2.66703 56.5805C2.95766 56.2899 3.125 55.8868 3.125 55.4758C3.125 55.0649 2.95781 54.6618 2.66703 54.3711C2.37656 54.0805 1.97344 53.9133 1.5625 53.9133Z" fill="#2489DA"/>
</svg>
